<svg width="32" height="32" xmlns="http://www.w3.org/2000/svg"><path d="M22.154 13.538c0-2.371-.843-4.4-2.529-6.086s-3.715-2.529-6.087-2.529c-2.371 0-4.4.843-6.086 2.529s-2.529 3.715-2.529 6.086c0 2.372.843 4.401 2.529 6.087s3.715 2.529 6.086 2.529c2.372 0 4.401-.843 6.087-2.529s2.529-3.715 2.529-6.087zm9.846 16c0 .667-.244 1.244-.73 1.731-.488.487-1.065.731-1.732.731-.692 0-1.269-.244-1.73-.73l-6.596-6.578c-2.295 1.59-4.853 2.385-7.674 2.385-1.833 0-3.586-.356-5.26-1.067-1.672-.712-3.115-1.673-4.326-2.885-1.212-1.212-2.173-2.654-2.885-4.327A13.303 13.303 0 0 1 0 13.538c0-1.833.356-3.586 1.067-5.26.712-1.672 1.673-3.115 2.885-4.326C5.163 2.74 6.606 1.779 8.279 1.067A13.303 13.303 0 0 1 13.539 0c1.833 0 3.586.356 5.26 1.067 1.672.712 3.114 1.673 4.326 2.885 1.212 1.211 2.173 2.654 2.885 4.327a13.303 13.303 0 0 1 1.067 5.26c0 2.82-.795 5.378-2.385 7.673l6.596 6.596c.475.474.712 1.051.712 1.73z" fill="#5DDA5B" fill-rule="nonzero"/></svg>