<svg xmlns="http://www.w3.org/2000/svg" width="15" height="15"><path fill="#BDBDBD" fill-rule="evenodd" d="M10.703 9.414L15 13.711 13.71 15l-4.257-4.297v-.664l-.273-.234c-1.042.885-2.253 1.328-3.633 1.328-1.537 0-2.845-.54-3.926-1.621C.541 8.43 0 7.122 0 5.586 0 4.049.54 2.734 1.621 1.64 2.701.547 3.997 0 5.508 0c1.536 0 2.845.547 3.926 1.64 1.08 1.094 1.62 2.41 1.62 3.946 0 1.38-.442 2.591-1.327 3.633l.273.195h.703zM2.813 8.32c.755.73 1.666 1.094 2.734 1.094s1.979-.371 2.734-1.113c.755-.742 1.133-1.647 1.133-2.715 0-1.068-.378-1.98-1.133-2.734a3.726 3.726 0 0 0-2.734-1.133c-1.068 0-1.973.377-2.715 1.133-.742.755-1.113 1.666-1.113 2.734s.364 1.98 1.093 2.734z"/></svg>