<svg xmlns="http://www.w3.org/2000/svg" width="16" height="19"><path fill="#FFF" fill-rule="evenodd" d="M10.538 4.012v-.774h-.74v.774h.74zm-3.768 0v-.774h-.74v.774h.74zm4.165-2.142a4.47 4.47 0 0 1 1.352 1.575c.336.642.505 1.323.505 2.043H3.777c0-.732.162-1.416.487-2.052A4.26 4.26 0 0 1 5.616 1.87L4.624.88a.355.355 0 0 1-.108-.261c0-.102.036-.189.108-.261A.356.356 0 0 1 4.886.25c.102 0 .19.036.261.108l1.136 1.116A4.25 4.25 0 0 1 8.266.988a4.25 4.25 0 0 1 1.983.486L11.385.358a.356.356 0 0 1 .262-.108c.102 0 .189.036.261.108a.355.355 0 0 1 .108.261.355.355 0 0 1-.108.261l-.973.99zm3.732 4.392c.312 0 .576.108.793.324.216.216.324.48.324.792v5.238c0 .324-.108.594-.324.81a1.08 1.08 0 0 1-.793.324 1.11 1.11 0 0 1-.803-.324 1.083 1.083 0 0 1-.333-.81V7.378c0-.312.108-.576.324-.792.217-.216.487-.324.812-.324zm-12.747 0c.313 0 .577.108.793.324.217.216.325.48.325.792v5.238c0 .324-.108.594-.325.81a1.08 1.08 0 0 1-.793.324 1.11 1.11 0 0 1-.802-.324 1.083 1.083 0 0 1-.334-.81V7.378c0-.312.108-.576.325-.792.216-.216.487-.324.811-.324zm1.857 7.488V6.262h9.015v7.488a.71.71 0 0 1-.217.522.713.713 0 0 1-.523.216h-.775v2.646c0 .312-.108.576-.324.792a1.08 1.08 0 0 1-.794.324 1.11 1.11 0 0 1-.802-.324 1.062 1.062 0 0 1-.334-.792v-2.646H7.545v2.646c0 .312-.108.576-.324.792a1.08 1.08 0 0 1-.794.324 1.11 1.11 0 0 1-.802-.324 1.062 1.062 0 0 1-.333-.792v-2.646h-.776a.713.713 0 0 1-.523-.216.71.71 0 0 1-.216-.522z"/></svg>