<svg xmlns="http://www.w3.org/2000/svg" width="15" height="19"><path fill="#FFF" fill-rule="evenodd" d="M9.973 3.126c.63-.761 1.054-1.82.938-2.876-.905.036-2.005.605-2.652 1.364-.581.675-1.09 1.751-.956 2.785 1.01.078 2.043-.513 2.67-1.273m4.683 10.327c-.022.062-.379 1.292-1.247 2.559-.748 1.097-1.529 2.192-2.756 2.213-1.203.024-1.59-.714-2.969-.714-1.377 0-1.808.693-2.948.738-1.185.046-2.084-1.186-2.842-2.278C.347 13.736-.832 9.654.751 6.902c.79-1.368 2.196-2.233 3.725-2.256 1.165-.02 2.26.782 2.971.782.712 0 2.043-.97 3.446-.827.585.027 2.233.237 3.293 1.786-.088.055-1.967 1.147-1.947 3.425.024 2.724 2.39 3.63 2.417 3.641"/></svg>