<svg xmlns="http://www.w3.org/2000/svg" width="15" height="15"><path fill="#757575" fill-rule="evenodd" d="M10 7.5C10 8.877 8.877 10 7.5 10A2.505 2.505 0 0 1 5 7.5C5 6.123 6.123 5 7.5 5S10 6.123 10 7.5zm1.347 0A3.842 3.842 0 0 0 7.5 3.653 3.842 3.842 0 0 0 3.653 7.5 3.842 3.842 0 0 0 7.5 11.347 3.842 3.842 0 0 0 11.347 7.5zm1.055-4.004c0-.498-.4-.898-.898-.898s-.899.4-.899.898.4.899.899.899c.498 0 .898-.4.898-.899zM7.5 1.348c1.094 0 3.437-.088 4.423.303.342.137.596.303.86.566a2.4 2.4 0 0 1 .566.86c.39.986.303 3.33.303 4.423 0 1.094.088 3.437-.303 4.423a2.398 2.398 0 0 1-.566.86 2.4 2.4 0 0 1-.86.566c-.986.39-3.33.303-4.423.303-1.094 0-3.437.088-4.423-.303a2.398 2.398 0 0 1-.86-.566 2.398 2.398 0 0 1-.566-.86c-.39-.986-.303-3.33-.303-4.423 0-1.094-.088-3.437.303-4.423.137-.342.303-.596.566-.86a2.4 2.4 0 0 1 .86-.566c.986-.39 3.33-.303 4.423-.303zM15 7.5c0-1.035.01-2.06-.05-3.095-.058-1.202-.331-2.266-1.21-3.145C12.86.381 11.797.108 10.595.05 9.56-.01 8.535 0 7.5 0 6.465 0 5.44-.01 4.405.05 3.203.107 2.139.38 1.26 1.26.381 2.14.108 3.203.05 4.405-.01 5.44 0 6.465 0 7.5c0 1.035-.01 2.06.05 3.095.058 1.202.331 2.266 1.21 3.145.88.879 1.943 1.152 3.145 1.21 1.035.06 2.06.05 3.095.05 1.035 0 2.06.01 3.095-.05 1.202-.058 2.266-.331 3.145-1.21.879-.88 1.152-1.943 1.21-3.145.06-1.035.05-2.06.05-3.095z"/></svg>