<svg xmlns="http://www.w3.org/2000/svg" width="20" height="16"><path fill="#757575" fill-rule="evenodd" d="M19.23 1.855a7.902 7.902 0 0 1-2.27.61A3.93 3.93 0 0 0 18.693.293c-.756.451-1.61.78-2.501.952A3.932 3.932 0 0 0 13.312 0a3.94 3.94 0 0 0-3.941 3.941c0 .305.037.61.098.903A11.202 11.202 0 0 1 1.342.72a3.912 3.912 0 0 0-.537 1.989 3.94 3.94 0 0 0 1.757 3.282 3.97 3.97 0 0 1-1.781-.5v.049a3.942 3.942 0 0 0 3.16 3.868c-.33.085-.683.134-1.037.134-.256 0-.5-.025-.744-.061a3.948 3.948 0 0 0 3.685 2.733 7.893 7.893 0 0 1-4.893 1.684c-.33 0-.635-.012-.952-.049a11.137 11.137 0 0 0 6.052 1.77c7.248 0 11.214-6.004 11.214-11.214 0-.171 0-.342-.013-.513a8.473 8.473 0 0 0 1.977-2.037z"/></svg>